<svg width="16932" height="2479" viewBox="0 0 16932 2479" fill="none" xmlns="http://www.w3.org/2000/svg">
<g clip-path="url(#clip0_1053_796)">
<path d="M9923.16 97.4727C10080.6 97.4727 10238.1 97.4727 10400.4 97.4727C10487 235.961 10573.3 374.534 10659.5 513.187C10688.8 560.339 10718.2 607.468 10747.7 654.574C10790 722.3 10832.1 790.108 10874.2 857.935C10887.4 878.966 10900.6 899.997 10914.2 921.666C10926.4 941.414 10938.7 961.163 10951.2 981.51C10962 998.802 10972.8 1016.09 10983.9 1033.91C11011.3 1086.33 11025.4 1135.49 11036.7 1191.53C11054.2 1191.53 11071.7 1191.53 11089.8 1191.53C11094 1180.1 11098.2 1168.67 11102.6 1156.89C11153.8 1025.39 11221.7 905.222 11298.9 782.517C11311.1 762.792 11323.4 743.066 11336 722.743C11374.7 660.401 11413.7 598.15 11452.7 535.901C11479.1 493.38 11505.6 450.853 11532 408.319C11596.6 304.634 11661.3 201.032 11726.1 97.4727C11892.3 97.4727 12058.6 97.4727 12229.8 97.4727C12229.8 699.205 12229.8 1300.94 12229.8 1920.91C12089.9 1920.91 11949.9 1920.91 11805.6 1920.91C11796.9 1531.55 11788.1 1142.19 11779.1 741.037C11699.8 872.445 11620.5 1003.85 11538.8 1139.24C11514.2 1179.99 11489.6 1220.74 11464.3 1262.72C11336.8 1474.01 11211.5 1685.95 11089.8 1899.45C11013.9 1845.81 10976 1787.41 10931.5 1714.76C10916.3 1690.1 10901.2 1665.43 10885.5 1640.02C10869.6 1613.87 10853.8 1587.73 10837.9 1561.58C10823 1537.36 10808.1 1513.13 10792.7 1488.18C10640.9 1240.39 10494.9 990.564 10347.4 741.037C10338.6 1130.39 10329.9 1519.75 10320.9 1920.91C10189.6 1920.91 10058.4 1920.91 9923.16 1920.91C9923.16 1319.17 9923.16 717.44 9923.16 97.4727Z" fill="#02A75B"/>
<path d="M1628.66 168.393C1794.72 276.32 1880.54 393.226 1905.4 564.336C1907.59 592.652 1909.77 620.969 1912.03 650.144C1780.78 650.144 1649.54 650.144 1514.32 650.144C1484.11 601.961 1453.91 553.777 1423.7 505.594C1372.62 446.508 1330.02 422.759 1249.18 392.718C1081.27 371.918 913.78 377.953 765.31 448.528C630.419 535.742 549.821 644.536 506.802 778.857C474.093 1030.3 483.758 1286.82 674.17 1497.51C791.996 1586.19 903.046 1618.77 1061.93 1624.88C1194.76 1620.79 1304.92 1599.82 1408.27 1529.68C1455.15 1473.53 1482.91 1421.61 1514.32 1358.07C1645.56 1358.07 1776.81 1358.07 1912.03 1358.07C1896.55 1533.35 1843.16 1659.69 1681.69 1781.75C1532.21 1880.39 1363.29 1945.94 1169.64 1958.73C1150.98 1960.08 1132.32 1961.44 1113.1 1962.83C854.21 1973.27 592.547 1915.34 392.876 1778.9C377.975 1767.45 363.073 1756 347.72 1744.21C326.188 1727.7 326.188 1727.7 304.221 1710.85C51.0357 1494.62 -9.74838 1205.89 -3.58608 918.883C18.8152 663.152 136.425 417.739 374.234 242.553C745.214 24.8609 1227.36 -48.2518 1628.66 168.393Z" fill="#0258B4"/>
<path d="M6423.35 204.734C6572.09 204.734 6720.83 204.734 6874.08 204.734C6874.08 325.081 6874.08 445.427 6874.08 569.421C6996.58 569.421 7119.07 569.421 7245.27 569.421C7245.27 661.451 7245.27 753.48 7245.27 848.299C7122.78 848.299 7000.29 848.299 6874.08 848.299C6875.25 947.954 6877.1 1047.58 6879.58 1147.22C6880.33 1181.11 6880.89 1215.01 6881.27 1248.91C6881.83 1297.65 6883.07 1346.35 6884.44 1395.08C6884.47 1410.23 6884.5 1425.38 6884.54 1440.99C6887.1 1510.38 6889.43 1546.9 6950.36 1597.78C7017.57 1625 7071.01 1631.34 7145.85 1635.32C7187.41 1637.54 7228.97 1639.75 7271.79 1642.03C7271.79 1734.06 7271.79 1826.09 7271.79 1920.91C7095.55 1968.44 6840.85 1970.99 6670.26 1906.16C6549.1 1844.92 6489.26 1783.7 6447.38 1671.86C6406.21 1513.91 6417.79 1350.78 6420.04 1190.19C6420.3 1156.97 6420.54 1123.74 6420.76 1090.52C6421.34 1009.77 6422.25 929.038 6423.35 848.299C6344.6 848.299 6265.86 848.299 6184.73 848.299C6184.73 756.269 6184.73 664.239 6184.73 569.421C6263.47 569.421 6342.22 569.421 6423.35 569.421C6423.35 449.074 6423.35 328.728 6423.35 204.734Z" fill="#0258B4"/>
<path d="M13423 204.734C13571.7 204.734 13720.4 204.734 13873.7 204.734C13873.7 325.081 13873.7 445.427 13873.7 569.421C13996.2 569.421 14118.7 569.421 14244.9 569.421C14244.9 661.451 14244.9 753.48 14244.9 848.299C14122.4 848.299 13999.9 848.299 13873.7 848.299C13875.5 947.951 13877.9 1047.58 13880.7 1147.22C13881.5 1181.11 13882.3 1215.01 13882.9 1248.91C13883.8 1297.64 13885.2 1346.35 13886.6 1395.08C13886.8 1410.23 13887 1425.38 13887.2 1440.99C13889.5 1503.11 13891.4 1546.14 13936.4 1597.78C13999.8 1631.12 14055.6 1631.76 14130.5 1635.32C14177 1637.54 14223.5 1639.75 14271.4 1642.03C14271.4 1734.06 14271.4 1826.09 14271.4 1920.91C14095.2 1968.44 13840.5 1970.99 13669.9 1906.16C13528 1834.72 13472 1755.79 13433.6 1624.74C13416.7 1550.02 13416.4 1477.12 13417.8 1401.36C13417.9 1385.42 13417.9 1369.47 13418 1353.04C13418.3 1302.78 13419 1252.52 13419.6 1202.26C13419.9 1167.9 13420.2 1133.55 13420.4 1099.19C13421 1015.56 13421.9 931.929 13423 848.299C13344.2 848.299 13265.5 848.299 13184.3 848.299C13184.3 756.269 13184.3 664.239 13184.3 569.421C13263.1 569.421 13341.8 569.421 13423 569.421C13423 449.074 13423 328.728 13423 204.734Z" fill="#05A95D"/>
<path d="M9127.74 54.5664C9267.73 54.5664 9407.73 54.5664 9551.96 54.5664C9551.96 670.458 9551.96 1286.35 9551.96 1920.9C9411.97 1920.9 9271.98 1920.9 9127.74 1920.9C9127.74 1305.01 9127.74 689.121 9127.74 54.5664Z" fill="#0258B4"/>
<path d="M15336.9 568.078C15387 568.742 15387 568.742 15438 569.419C15438 668.528 15438 767.637 15438 869.749C15392.6 878.156 15347.2 886.562 15300.5 895.223C15170.5 924.514 15093.2 948.993 15013.8 1041.37C14915.5 1222.92 14919.6 1405.87 14916 1600.46C14915.1 1633.69 14914.2 1666.91 14913.3 1700.14C14911 1780.88 14909.4 1861.6 14907.7 1942.36C14767.7 1942.36 14627.7 1942.36 14483.5 1942.36C14483.5 1496.37 14483.5 1050.38 14483.5 590.871C14623.5 590.871 14763.5 590.871 14907.7 590.871C14916.5 640.426 14925.2 689.98 14934.2 741.036C14948.6 730.445 14963 719.854 14977.8 708.942C14996.8 695.198 15015.8 681.454 15035.3 667.294C15054.1 653.606 15072.8 639.918 15092.2 625.815C15172.3 574.125 15237.8 566.763 15336.9 568.078Z" fill="#00A95E"/>
<path d="M12574.5 569.418C12714.5 569.418 12854.5 569.418 12998.7 569.418C12998.7 1015.41 12998.7 1461.4 12998.7 1920.9C12858.7 1920.9 12718.8 1920.9 12574.5 1920.9C12574.5 1474.91 12574.5 1028.92 12574.5 569.418Z" fill="#00A658"/>
<path d="M5574.91 569.418C5714.91 569.418 5854.9 569.418 5999.13 569.418C5999.13 1015.41 5999.13 1461.4 5999.13 1920.9C5859.14 1920.9 5719.15 1920.9 5574.91 1920.9C5574.91 1474.91 5574.91 1028.92 5574.91 569.418Z" fill="#0258B4"/>
<path d="M4369.68 599.672C4607.01 489.463 4882.4 544.242 5100.98 653.889C5261.39 769.805 5356.08 968.05 5368.19 1138.74C5374.39 1398.17 5338.14 1608.02 5124.18 1813.65C4981.74 1924.57 4828.69 1954.62 4636.99 1971.85C4488.73 1959.45 4330 1921.9 4222.71 1835.1L4196.2 2478.66H3745.47V569.421H4169.69L4196.2 698.134C4219.73 684.57 4219.73 684.57 4243.74 670.733L4307.23 635.118L4369.68 599.672ZM4760.05 854.523C4531.98 779.459 4334.51 824.25 4216.52 1002.01C4153.93 1156.54 4153.93 1346.24 4216.52 1500.77C4270.62 1582.27 4294.1 1618.14 4397.15 1658.98C4538.05 1675.79 4689.89 1687.96 4809.76 1616.07C4972.54 1453.98 4979.63 1282.51 4953.93 1079.77C4921.57 978.454 4868.76 911.97 4760.05 854.523Z" fill="#0258B4"/>
<path d="M7748.93 629.083C8002.06 523.861 8277.29 506.915 8540.3 605.369C8705.47 687.441 8785.77 806.169 8836.09 955.558C8846.19 1031.71 8845.41 1106.97 8843.86 1183.49C8843.75 1204.67 8843.64 1225.86 8843.52 1247.68C8843.08 1314.78 8842.08 1381.86 8841.06 1448.96C8840.66 1494.68 8840.3 1540.41 8839.98 1586.13C8839.1 1697.73 8837.73 1809.31 8836.09 1920.9H8438.39V1792.19C8423.31 1800.99 8408.24 1809.78 8392.71 1818.84C8209.15 1922.48 8032.72 1992.3 7802.06 1963.81C7645.03 1922.4 7552.52 1856.59 7457.38 1749.29C7390.69 1641.37 7405 1469.05 7451.17 1356.61C7546.14 1234.85 7721.98 1172.61 7888.54 1135.14C7990.84 1123.92 8091.7 1124.93 8194.79 1125.83C8226.14 1125.98 8226.14 1125.98 8258.13 1126.13C8309.38 1126.38 8360.62 1126.76 8411.87 1127.18C8405.8 1092.7 8399.04 1058.3 8391.99 1023.94C8388.3 1004.77 8384.61 985.61 8380.8 965.866C8353.51 899.729 8328.22 881.05 8252.79 848.297C8187.9 838.191 8187.9 838.192 8120.22 840.253C8097.8 840.087 8075.38 839.921 8052.28 839.75C7974.52 850.035 7938.38 868.969 7881.6 912.654L7855.09 977.01H7483.9C7534.95 833.507 7582.18 711.46 7748.93 629.083ZM8275.99 1339.01C8099.28 1336.1 7938.56 1347.19 7828.57 1470.41C7815.32 1534.76 7815.32 1534.77 7828.57 1599.12C7863.37 1650.07 7863.37 1650.07 7934.63 1684.93C8066.05 1699.49 8184.03 1698.88 8307.47 1658.11C8377.98 1606.59 8406.43 1559.87 8422.85 1484.15C8424.75 1466.71 8426.6 1449.79 8428.44 1432.87C8431.96 1402.49 8435.33 1372.1 8438.39 1341.7C8414.65 1341.18 8391.62 1340.68 8368.58 1340.19C8337.1 1339.79 8306.54 1339.4 8275.99 1339.01Z" fill="#0258B4"/>
<path d="M2419.68 629.082C2654.66 531.406 2910.24 510.103 3161.24 588.608C3306.04 652.246 3400.31 743.745 3463.5 866.276C3496.92 958.355 3489.94 1052.69 3488.1 1147.87C3487.99 1170.04 3487.88 1192.21 3487.76 1215.04C3487.32 1285.42 3486.32 1355.79 3485.31 1426.16C3484.91 1474.05 3484.54 1521.94 3484.22 1569.83C3483.34 1686.86 3481.97 1803.88 3480.33 1920.9H3082.63L3056.11 1813.64C3042.65 1820.89 3029.18 1828.13 3015.31 1835.6C2839.74 1927.64 2687.58 1984.35 2472.81 1963.81C2308.56 1934.58 2221.05 1883.51 2128.14 1770.74C2063 1657.8 2040.84 1525.4 2094.27 1406.22C2187.24 1264.31 2318.44 1203.51 2499.33 1148.63C2621.2 1122.33 2740.44 1124.73 2865.55 1125.83C2896.9 1125.98 2896.9 1125.98 2928.88 1126.13C2980.13 1126.38 3031.38 1126.76 3082.63 1127.17C3065.71 1031.59 3050.91 955.526 2974.92 879.134C2867.62 836.649 2775.6 827.683 2658.41 848.296C2578.23 897.02 2578.23 897.02 2525.84 955.557C2499.33 977.009 2499.33 977.009 2421.34 979.104C2389.66 978.855 2357.97 978.606 2325.33 978.35C2277.7 978.059 2277.7 978.06 2229.12 977.764C2204.54 977.515 2179.97 977.265 2154.65 977.009C2202.8 834.49 2255.06 710.405 2419.68 629.082ZM2920.23 1339.01C2774.98 1336.62 2582.85 1336.32 2499.33 1448.96C2485.19 1524.88 2475.52 1592.41 2530.71 1657.7C2578.87 1684.93 2578.87 1684.93 2646.71 1692.72C2672.66 1692.35 2697.85 1691.99 2723.04 1691.63C2822.55 1691.31 2891.94 1685.74 2976.57 1642.03C3085.88 1538.85 3093.7 1471.65 3082.63 1341.7C3058.89 1341.18 3035.86 1340.69 3012.82 1340.19C2981.34 1339.79 2950.79 1339.4 2920.23 1339.01Z" fill="#0258B4"/>
<path d="M15802.6 661.93C16049.6 519.723 16357.6 498.245 16631.1 612.321C16790 697.413 16873.6 783.382 16922.8 934.104C16932.8 1011.82 16932.1 1088.65 16930.5 1166.73C16930.4 1188.39 16930.3 1210.05 16930.2 1232.36C16929.7 1300.99 16928.8 1369.61 16927.7 1438.23C16927.3 1484.99 16927 1531.75 16926.6 1578.51C16925.8 1692.64 16924.4 1806.77 16922.8 1920.9H16525.1L16498.5 1813.64C16485.4 1820.89 16472.2 1828.13 16458.7 1835.6C16286.9 1926.83 16125.1 1983.95 15915.2 1963.81C15747.4 1914.83 15625.1 1861.78 15544.1 1727.83C15504.7 1619.9 15487.1 1507.05 15542.5 1401.27C15646.3 1260.42 15766.5 1182.97 15961.7 1138.49C16147.6 1114.06 16337.4 1122.71 16525.1 1127.17C16508.1 1031.58 16493.3 955.525 16417.3 879.133C16310 836.648 16218 827.682 16100.8 848.295C16020.7 897.019 16020.7 897.019 15968.3 955.556C15941.8 977.008 15941.8 977.008 15863.8 979.103C15832.1 978.854 15800.4 978.605 15767.8 978.349C15720.1 978.058 15720.1 978.058 15671.5 977.762C15647 977.513 15622.4 977.264 15597.1 977.008C15621.3 837.56 15677.5 760.846 15802.6 661.93ZM16525.1 1341.7C16316 1338.99 16091.6 1309.85 15941.8 1448.96C15923.3 1513.47 15929.7 1552.55 15941.8 1620.58C15997.9 1666.11 16033.5 1683.21 16112.4 1692.73C16135.5 1692.36 16158 1692 16180.4 1691.64C16274.8 1691.29 16338.5 1682.82 16419 1642.03C16528.3 1538.85 16536.1 1471.65 16525.1 1341.7Z" fill="#02A65A"/>
<path d="M5768.79 3.61719C5855.75 5.54324 5893.36 11.7824 5972.62 45.1807C6043.44 115.018 6054.08 157.546 6052.16 247.635C5974.29 364.943 5974.29 364.943 5893.07 397.8C5706.35 412.66 5706.35 412.66 5603.08 352.215C5542.14 283.488 5521.88 246.215 5521.88 161.827C5580.94 61.7172 5628.19 5.52906 5768.79 3.61719Z" fill="#0258B4"/>
<path d="M12861.9 1.35727C12959 18.8333 12998 52.9587 13051.8 118.925C13070.1 211.228 13065.4 252.131 13002.1 330.765C12929.4 389.511 12908.4 396.846 12804.9 403.166C12701.9 397.517 12655.5 383.557 12574.5 333.447C12531.6 264.067 12532.9 193.927 12548 118.925C12631.6 14.2213 12714.8 -5.99362 12861.9 1.35727Z" fill="#03A458"/>
<path d="M3745.47 569.418C3885.46 569.418 4025.45 569.418 4169.69 569.418C4169.69 611.893 4169.69 654.368 4169.69 698.131C4160.94 669.814 4152.19 641.497 4143.17 612.322C4029.43 612.322 3915.69 612.322 3798.5 612.322C3798.5 1221.13 3798.5 1829.95 3798.5 2457.21C3920.99 2450.13 4043.48 2443.05 4169.69 2435.75C4169.69 2449.91 4169.69 2464.07 4169.69 2478.66C4029.7 2478.66 3889.7 2478.66 3745.47 2478.66C3745.47 1848.61 3745.47 1218.56 3745.47 569.418Z" fill="#0D55B2"/>
<path d="M14483.5 590.871C14623.5 590.871 14763.5 590.871 14907.7 590.871C14907.7 647.505 14907.7 704.138 14907.7 762.488C14899 762.488 14890.2 762.488 14881.2 762.488C14881.2 712.934 14881.2 663.379 14881.2 612.323C14767.5 612.323 14653.7 612.323 14536.5 612.323C14536.5 1037.08 14536.5 1461.83 14536.5 1899.45C14650.3 1899.45 14764 1899.45 14881.2 1899.45C14880.8 1879.67 14880.4 1859.88 14879.9 1839.5C14878.6 1765.25 14877.6 1691.02 14876.8 1616.77C14876.4 1584.79 14875.9 1552.81 14875.2 1520.84C14868.1 1183.84 14868.1 1183.84 14960.8 1019.91C14978.3 1012.83 14995.7 1005.76 15013.8 998.462C15008.2 1011.22 15002.7 1023.98 14997 1037.12C14923.7 1225.69 14919.6 1407.47 14916 1603.14C14915.1 1636.18 14914.2 1669.21 14913.3 1702.23C14911 1782.28 14909.4 1862.3 14907.7 1942.36C14767.7 1942.36 14627.7 1942.36 14483.5 1942.36C14483.5 1496.37 14483.5 1050.38 14483.5 590.871Z" fill="#069B46"/>
<path d="M6874.08 1556.22C6890.49 1566.4 6906.89 1576.57 6923.8 1587.06C7040.08 1634.1 7142.33 1635.04 7271.79 1642.03C7271.79 1734.06 7271.79 1826.09 7271.79 1920.91C7236.79 1913.83 7201.79 1906.75 7165.73 1899.45C7183.23 1899.45 7200.73 1899.45 7218.76 1899.45C7218.76 1828.66 7218.76 1757.87 7218.76 1684.93C7162.98 1681.61 7162.98 1681.61 7106.08 1678.23C7008.2 1669.5 6943.35 1660.04 6874.08 1599.12C6874.08 1584.96 6874.08 1570.81 6874.08 1556.22Z" fill="#0258B4"/>
<path d="M2128.14 1363.15C2145.63 1370.23 2163.13 1377.31 2181.16 1384.6C2181.16 1398.76 2181.16 1412.92 2181.16 1427.5C2163.66 1427.5 2146.16 1427.5 2128.14 1427.5C2131.19 1471.32 2134.57 1515.11 2138.08 1558.9C2139.92 1583.29 2141.77 1607.68 2143.67 1632.81C2154.5 1705.39 2176.12 1766.79 2207.68 1835.1C2124.39 1779.96 2100.06 1725.9 2075.11 1642.03C2064.03 1536.63 2062.2 1456.72 2128.14 1363.15Z" fill="#0258B4"/>
<path d="M2207.68 848.297C2216.43 862.455 2225.17 876.614 2234.19 891.201C2225.44 905.36 2216.69 919.518 2207.68 934.105C2303.92 934.105 2400.17 934.105 2499.33 934.105C2508.08 919.947 2516.83 905.789 2525.84 891.201C2517.09 919.518 2508.34 947.835 2499.33 977.01C2385.58 977.01 2271.84 977.01 2154.65 977.01C2172.15 934.535 2189.65 892.059 2207.68 848.297Z" fill="#0258B4"/>
<path d="M643.367 118.922C660.866 126.001 678.365 133.08 696.395 140.374C670.146 147.453 643.897 154.532 616.854 161.826C608.104 175.985 599.354 190.143 590.34 204.73C581.59 218.889 572.841 233.047 563.826 247.635C537.578 254.714 511.329 261.793 484.285 269.087C466.786 254.928 449.287 240.77 431.258 226.183C465.334 207.652 499.621 189.375 533.998 171.211C562.605 155.905 562.605 155.905 591.79 140.29C608.81 133.239 625.831 126.187 643.367 118.922Z" fill="#0258B4"/>
<path d="M5680.96 33.1172C5654.45 97.4736 5654.45 97.4736 5601.42 118.926C5589.09 159.585 5589.09 159.585 5584.85 206.075C5581.57 233.95 5578.29 261.824 5574.91 290.543C5557.41 276.385 5539.91 262.226 5521.88 247.639C5530.71 116.766 5530.71 116.766 5586.51 55.9101C5627.94 33.1172 5627.94 33.1172 5680.96 33.1172Z" fill="#0D43A9"/>
</g>
<defs>
<clipPath id="clip0_1053_796">
<rect width="16932" height="2479" fill="white"/>
</clipPath>
</defs>
</svg>
