<svg width="4524" height="3826" viewBox="0 0 4524 3826" fill="none" xmlns="http://www.w3.org/2000/svg">
<path d="M4435.08 7.12051C4550.83 147.604 4519.46 356.391 4519.59 520.631C4519.92 542.934 4520.24 565.236 4520.58 588.214C4520.63 609.465 4520.68 630.717 4520.73 652.612C4520.84 671.829 4520.95 691.047 4521.06 710.846C4514.62 757.946 4514.62 757.946 4461.59 800.85C4356.24 812.215 4314.66 807.689 4226.29 757.946C4207.69 743.787 4189.1 729.629 4169.94 715.041C4072.86 746.985 4025.38 789.597 3961.15 855.821C3940.27 877.031 3919.38 898.241 3897.87 920.094C3886.34 931.87 3874.81 943.647 3862.93 955.781C3792.32 1027.29 3720 1097.66 3647.96 1168.22C3615.91 1199.67 3583.88 1231.12 3551.84 1262.57C3535.71 1278.41 3519.58 1294.25 3502.96 1310.57C3454.58 1358.11 3406.26 1405.7 3357.96 1453.3C3200.35 1608.54 3042.33 1763.4 2880.7 1915.92C2829.09 1964.83 2782.39 2012.91 2738.21 2066.53C2649.77 2090.17 2586.72 2100.84 2499.94 2068.13C2442.37 2037.81 2388.17 2005.38 2333.87 1971.33C2304.5 1953.71 2304.5 1953.71 2274.53 1935.74C2235.18 1912.1 2195.97 1888.28 2156.94 1864.29C2081.47 1818.05 2004.71 1773.4 1927.88 1728.66C1888.64 1705.44 1849.41 1682.22 1810.23 1658.94C1680.13 1748.1 1553.42 1839.4 1429.09 1933.79C1401.97 1954.34 1401.97 1954.34 1374.3 1975.31C1215.17 2096.68 1060.32 2221.35 907.066 2347.57C803.115 2432.75 696.382 2513.47 584.203 2591.53C547.261 2617.48 511.437 2644.47 476.051 2671.8C398.084 2732.01 347.898 2770.53 240.949 2789.2C149.211 2771.05 101.153 2741.57 33.8109 2688.64C-5.534 2624.97 -4.77441 2587.99 7.29721 2517.02C54.3693 2460.76 113.305 2415.77 173.836 2368.95C190.988 2355.21 208.14 2341.46 225.812 2327.3C280.761 2283.41 336.244 2240 391.745 2196.58C428.306 2167.46 464.831 2138.31 501.321 2109.14C635.414 2002.42 769.248 1896.27 911.416 1796.56C1000.47 1734.08 1084.24 1669.32 1167.06 1601.45C1180.17 1590.76 1193.28 1580.07 1206.79 1569.06C1247.82 1535.61 1288.75 1502.09 1329.67 1468.55C1384.21 1423.85 1438.83 1379.22 1493.51 1334.64C1517.43 1315.04 1541.35 1295.43 1566 1275.24C1632.75 1223.61 1658.43 1210.42 1749.43 1201.07C1861.64 1210.54 1927.56 1250.68 2014.05 1304.98C2030.02 1314.61 2045.98 1324.24 2062.43 1334.17C2095.15 1353.92 2127.75 1373.79 2160.25 1393.78C2231.68 1437.5 2304.34 1479.76 2376.96 1522.18C2417.84 1546.3 2458.72 1570.43 2499.58 1594.58C2599.37 1562.25 2647.65 1516.3 2713.35 1448.44C2734.23 1427.2 2755.11 1405.96 2776.63 1384.08C2793.16 1367.24 2793.16 1367.24 2810.02 1350.06C2867.44 1292.44 2927.25 1236.48 2986.77 1180.28C3100.7 1072.19 3209.83 961.544 3317.54 849.374C3446.65 715.508 3582.5 586.414 3719.21 457.616C3698.16 444.923 3677.1 432.23 3655.41 419.153C3628.34 402.201 3601.28 385.25 3573.39 367.785C3546.32 351.11 3519.25 334.435 3491.36 317.255C3427.56 264.546 3427.56 264.546 3415.13 207.145C3427.56 157.286 3427.56 157.286 3480.59 114.381C3551.39 99.6643 3551.39 99.6643 3640.71 86.7281C3673.07 82.027 3705.44 77.326 3738.79 72.4825C3772.79 67.7262 3806.8 62.9698 3841.84 58.0694C3875.23 53.1471 3908.62 48.2248 3943.02 43.1534C4284.55 -5.55982 4284.55 -5.55982 4435.08 7.12051Z" fill="#0259B5"/>
<path d="M4435.08 1229.89C4435.08 2086.48 4435.08 2943.06 4435.08 3825.6C4111.35 3825.6 3787.62 3825.6 3454.07 3825.6C3445.64 3571.78 3438.85 3318.02 3434.84 3064.13C3432.92 2946.2 3430.31 2828.34 3426.07 2710.44C3422 2596.38 3419.81 2482.38 3418.86 2368.27C3418.18 2325.03 3416.85 2281.8 3414.83 2238.59C3402.32 1960.02 3445.7 1791.97 3684.58 1583.86C3716.73 1556.97 3749.09 1530.25 3781.67 1503.7C3822.94 1467.88 3856.17 1432.15 3889.39 1391.32C4059.04 1187.71 4085.06 1229.89 4435.08 1229.89Z" fill="#02A95E"/>
<path d="M1783.8 2067.11C1851.95 2093.97 1907.93 2126.87 1967.96 2164.4C2004.95 2187.38 2004.95 2187.38 2042.69 2210.83C2068.24 2226.92 2093.78 2243.02 2120.11 2259.6C2145.96 2275.69 2171.82 2291.79 2198.46 2308.37C2387.32 2426.19 2387.32 2426.19 2420.04 2452.67C2422.53 2495.45 2423.15 2538.3 2423.05 2581.13C2423.05 2608.62 2423.05 2636.1 2423.04 2664.42C2422.91 2694.65 2422.77 2724.87 2422.63 2755.09C2422.58 2785.84 2422.54 2816.59 2422.52 2847.34C2422.42 2928.42 2422.15 3009.5 2421.86 3090.58C2421.54 3187.79 2421.42 3284.99 2421.27 3382.2C2421.01 3530 2420.5 3677.8 2420.04 3825.6C2148.81 3825.6 1877.57 3825.6 1598.12 3825.6C1595.12 3608.92 1592.69 3392.24 1591.25 3175.55C1590.56 3074.93 1589.62 2974.32 1588.12 2873.71C1586.68 2776.62 1585.88 2679.54 1585.54 2582.45C1585.29 2545.39 1584.82 2508.34 1584.1 2471.29C1583.14 2419.41 1583.01 2367.57 1583.07 2315.68C1582.59 2300.34 1582.11 2285 1581.62 2269.2C1582.66 2188.37 1591.21 2158.08 1662.02 2099.19C1730.69 2066.53 1730.69 2066.53 1783.8 2067.11Z" fill="#015AB6"/>
<path d="M1253.44 2452.67C1253.44 2905.74 1253.44 3358.81 1253.44 3825.61C973.455 3825.61 693.471 3825.61 405.002 3825.61C325.465 3160.62 325.465 3160.62 500.817 2974.68C659.846 2825.14 849.548 2702.13 1041.33 2581.38C1078.8 2555.55 1116.09 2529.56 1153.08 2503.28C1226.93 2452.67 1226.93 2452.67 1253.44 2452.67Z" fill="#0058B4"/>
<path d="M3109.4 2173.79C3118.15 2173.79 3126.9 2173.79 3135.91 2173.79C3135.91 2718.89 3135.91 3263.99 3135.91 3825.6C3004.67 3825.6 2873.42 3825.6 2738.21 3825.6C2732.79 3661.87 2728.42 3498.15 2725.84 3334.37C2724.6 3258.29 2722.93 3182.25 2720.2 3106.2C2717.08 3018.49 2715.95 2930.82 2714.9 2843.08C2713.67 2816.14 2712.44 2789.21 2711.17 2761.45C2711.02 2551.17 2797.72 2449.78 2976.83 2302.5C3003.69 2276.36 3030.28 2250.04 3056.37 2223.4C3073.87 2207.03 3091.37 2190.66 3109.4 2173.79Z" fill="#00A557"/>
<path d="M3931.32 1358.61C3951.21 1393.47 3951.21 1393.47 3957.83 1444.42C3914.75 1512.8 3914.75 1512.8 3851.78 1573.13C3778.87 1591.9 3778.87 1591.9 3719.21 1594.58C3779.8 1506.85 3850.64 1434.47 3931.32 1358.61Z" fill="#079D51"/>
<path d="M3029.86 2238.14C3056.1 2238.14 3082.35 2238.14 3109.4 2238.14C3109.4 2301.86 3109.4 2365.57 3109.4 2431.21C3056.37 2366.86 3056.37 2366.86 3056.37 2323.95C3003.87 2352.27 2951.38 2380.59 2897.29 2409.76C2933.6 2346.48 2972.22 2290.38 3029.86 2238.14Z" fill="#069F52"/>
</svg>
